<?xml version="1.0" standalone="no"?>
<!DOCTYPE svg PUBLIC "-//W3C//DTD SVG 20010904//EN"
 "http://www.w3.org/TR/2001/REC-SVG-20010904/DTD/svg10.dtd">
<svg version="1.0" xmlns="http://www.w3.org/2000/svg"
 width="700.000000pt" height="700.000000pt" viewBox="0 0 700.000000 700.000000"
 preserveAspectRatio="xMidYMid meet">
<metadata>
Created by potrace 1.14, written by Peter Selinger 2001-2017
</metadata>
<g transform="translate(0.000000,700.000000) scale(0.100000,-0.100000)"
fill="#000000" stroke="none">
<path d="M4609 5286 c-2 -2 -29 -7 -59 -10 -394 -45 -756 -254 -998 -575 -153
-202 -267 -459 -320 -715 -21 -102 -11 -114 -91 104 -27 74 -96 263 -154 420
-58 157 -140 379 -182 494 -42 116 -80 216 -84 223 -7 14 -35 15 -396 13 -47
0 -65 -4 -65 -13 0 -14 -75 -224 -169 -472 -11 -27 -46 -124 -80 -215 -78
-215 -353 -964 -493 -1345 -61 -165 -125 -340 -143 -390 -78 -217 -367 -1001
-401 -1090 -12 -33 -21 -61 -19 -63 3 -3 389 -6 436 -3 11 1 25 26 43 79 15
42 33 93 41 112 11 28 111 310 267 755 12 33 23 62 26 65 2 3 329 5 728 5
l724 0 9 -25 c5 -14 17 -47 26 -75 10 -27 21 -59 26 -70 4 -11 36 -99 69 -195
77 -219 120 -339 130 -365 5 -11 29 -78 54 -149 25 -71 47 -131 50 -133 2 -2
103 -5 225 -6 167 -2 221 1 221 10 0 7 -11 41 -24 77 l-23 65 81 -41 c101 -51
184 -82 284 -108 75 -19 90 -22 162 -34 111 -18 288 -22 420 -11 84 8 255 42
303 60 20 8 37 13 37 11 0 -3 28 7 63 20 202 81 353 178 492 319 193 195 310
419 379 728 l6 27 -217 0 -218 0 -17 -65 c-63 -237 -227 -442 -453 -566 -76
-42 -204 -91 -270 -104 -16 -3 -41 -8 -55 -10 -181 -37 -471 -13 -619 51 -175
76 -270 139 -382 254 -223 231 -336 512 -374 935 -5 59 -6 305 -1 355 19 189
20 196 48 315 69 298 219 548 430 717 270 218 672 287 1033 178 203 -61 403
-205 516 -371 52 -76 101 -184 125 -269 9 -36 19 -67 21 -69 2 -3 100 -5 218
-5 l214 -1 -4 25 c-66 356 -262 670 -546 875 -184 132 -385 212 -659 260 -39
7 -385 16 -391 11z m-2099 -619 c0 -2 14 -42 31 -88 17 -46 46 -127 64 -179
38 -110 73 -207 145 -410 28 -80 79 -221 112 -315 33 -93 80 -226 104 -295 70
-197 114 -323 114 -327 0 -1 -263 -3 -585 -3 -348 0 -585 4 -585 9 0 9 159
459 252 716 22 61 41 115 43 120 1 6 5 17 8 25 4 8 32 87 63 175 30 88 73 207
94 265 21 58 50 141 65 185 42 122 43 125 60 125 8 0 15 -2 15 -3z"/>
</g>
</svg>
