<svg width="17" height="17" viewBox="0 0 17 17" fill="none" xmlns="http://www.w3.org/2000/svg">
<path d="M3.41478 13H2.30682L5.51137 4.27273H6.60228L9.80682 13H8.69887L6.09091 5.65341H6.02273L3.41478 13ZM3.82387 9.59091H8.28978V10.5284H3.82387V9.59091Z" fill="url(#paint0_linear_1_4)"/>
<path d="M15.0796 7H14.0227C13.9602 6.69602 13.8509 6.42898 13.6946 6.19886C13.5412 5.96875 13.3537 5.77557 13.1321 5.61932C12.9134 5.46023 12.6705 5.34091 12.4034 5.26136C12.1364 5.18182 11.858 5.14204 11.5682 5.14204C11.0398 5.14204 10.5611 5.27557 10.1321 5.54261C9.70597 5.80966 9.36648 6.20312 9.11364 6.72301C8.86364 7.2429 8.73864 7.88068 8.73864 8.63636C8.73864 9.39204 8.86364 10.0298 9.11364 10.5497C9.36648 11.0696 9.70597 11.4631 10.1321 11.7301C10.5611 11.9972 11.0398 12.1307 11.5682 12.1307C11.858 12.1307 12.1364 12.0909 12.4034 12.0114C12.6705 11.9318 12.9134 11.8139 13.1321 11.6577C13.3537 11.4986 13.5412 11.304 13.6946 11.0739C13.8509 10.8409 13.9602 10.5739 14.0227 10.2727H15.0796C15 10.7187 14.8551 11.1179 14.6449 11.4702C14.4347 11.8224 14.1733 12.1222 13.8608 12.3693C13.5483 12.6136 13.1974 12.7997 12.8082 12.9276C12.4219 13.0554 12.0085 13.1193 11.5682 13.1193C10.8239 13.1193 10.1619 12.9375 9.58239 12.5739C9.00285 12.2102 8.54688 11.6932 8.21449 11.0227C7.88211 10.3523 7.71591 9.55682 7.71591 8.63636C7.71591 7.71591 7.88211 6.92045 8.21449 6.25C8.54688 5.57954 9.00285 5.0625 9.58239 4.69886C10.1619 4.33523 10.8239 4.15341 11.5682 4.15341C12.0085 4.15341 12.4219 4.21733 12.8082 4.34517C13.1974 4.47301 13.5483 4.66051 13.8608 4.90767C14.1733 5.15199 14.4347 5.45028 14.6449 5.80256C14.8551 6.15199 15 6.55114 15.0796 7Z" fill="url(#paint1_linear_1_4)"/>
<defs>
<linearGradient id="paint0_linear_1_4" x1="2" y1="4" x2="15" y2="13" gradientUnits="userSpaceOnUse">
<stop/>
<stop offset="0.0001" stop-color="#0000FF"/>
<stop offset="1" stop-color="#FF0000"/>
</linearGradient>
<linearGradient id="paint1_linear_1_4" x1="2" y1="4" x2="15" y2="13" gradientUnits="userSpaceOnUse">
<stop/>
<stop offset="0.0001" stop-color="#0000FF"/>
<stop offset="1" stop-color="#FF0000"/>
</linearGradient>
</defs>
</svg>
